<svg xmlns:svg="http://www.w3.org/2000/svg" xmlns="http://www.w3.org/2000/svg" width="131.4" height="69.5" version="1.1">
    <style>
        .s1 {
            fill: #8058a5;
        }
    </style>
    <g transform="translate(0,-982.86895)">
        <g transform="translate(-28.0825,948.53488)">
            <path d="m40.3 54.1c1.8 0.3 3.2 1.1 4.2 2.4 1.1 1.3 1.6 2.9 1.6 4.8 0 1.2-0.2 2.3-0.7 3.3-0.4 1-1.1 1.9-1.9 2.6-0.8 0.7-1.8 1.3-2.9 1.6-1.1 0.4-2.4 0.6-3.8 0.6-2 0-3.8-0.4-5.3-1.2-1.5-0.8-2.7-1.9-3.4-3.4l1.9-1.7c0.6 1.2 1.4 2.1 2.6 2.8 1.1 0.7 2.6 1 4.3 1 2 0 3.6-0.5 4.7-1.5 1.1-1 1.7-2.3 1.7-4.2 0-1.8-0.6-3.3-1.8-4.4-1.2-1.1-2.9-1.6-5.2-1.6l-1 0 0-2.3 1.1 0c2.1 0 3.6-0.5 4.7-1.4 1.1-1 1.6-2.2 1.6-3.7 0-0.8-0.1-1.5-0.4-2.1-0.3-0.6-0.7-1.1-1.2-1.5-0.5-0.4-1.1-0.7-1.8-1-0.7-0.2-1.5-0.3-2.3-0.3-1.5 0-2.9 0.3-4 1-1.1 0.7-2 1.6-2.6 2.8l-1.8-1.7c0.3-0.7 0.8-1.3 1.4-1.9 0.6-0.6 1.3-1.1 2-1.5 0.7-0.4 1.6-0.7 2.5-0.9 0.9-0.2 1.8-0.4 2.8-0.4 1.2 0 2.3 0.2 3.4 0.5 1 0.3 1.9 0.8 2.7 1.5 0.7 0.6 1.3 1.4 1.7 2.2 0.4 0.9 0.6 1.9 0.6 2.9 0 0.8-0.1 1.6-0.4 2.3-0.2 0.7-0.6 1.4-1 2-0.5 0.6-1 1-1.7 1.4-0.6 0.4-1.4 0.6-2.2 0.7M60.9 62.5 60.9 62.5c-0.2 0.1-0.4 0.2-0.7 0.3-0.3 0.1-0.6 0.3-1 0.4-0.4 0.1-0.9 0.3-1.4 0.4-0.5 0.1-1 0.2-1.6 0.2-0.6 0-1.1-0.1-1.7-0.2-0.5-0.2-1-0.4-1.4-0.7-0.4-0.3-0.7-0.8-1-1.3-0.2-0.5-0.4-1.1-0.4-1.8l0-14.9-2.9 0 0-2.2 2.9 0 0-7 2.7 0 0 7 4.8 0 0 2.2-4.8 0 0 14.2c0.1 0.8 0.3 1.3 0.8 1.7 0.5 0.3 1.1 0.5 1.7 0.5 0.8 0 1.5-0.1 2-0.4 0.6-0.3 1-0.5 1.1-0.6l0.7 2.2M81.8 63.5l-2.7 0 0-11.6c0-2.4-0.4-4.1-1.2-5.3-0.8-1.2-2-1.8-3.6-1.8-0.8 0-1.5 0.2-2.3 0.5-0.7 0.3-1.5 0.7-2.1 1.2-0.7 0.5-1.3 1.2-1.8 1.9-0.5 0.7-0.8 1.5-1.1 2.4l0 12.8-2.7 0 0-29.2 2.7 0 0 13.1c0.8-1.6 2-2.8 3.4-3.7 1.5-0.9 3.1-1.4 4.8-1.4 1.2 0 2.2 0.2 3 0.7 0.8 0.4 1.5 1 2 1.8 0.5 0.8 0.9 1.7 1.2 2.8 0.2 1.1 0.4 2.3 0.4 3.6l0 12.2M87.7 63.5l0-20.8 2.7 0 0 20.8-2.7 0m0-25.2 0-4 2.7 0 0 4-2.7 0M114 63.5l-2.7 0 0-11.6c0-2.5-0.4-4.3-1.1-5.4-0.7-1.1-1.8-1.7-3.4-1.7-0.8 0-1.6 0.1-2.4 0.4-0.8 0.3-1.5 0.7-2.2 1.2-0.7 0.5-1.3 1.2-1.8 1.9-0.5 0.7-0.9 1.5-1.2 2.4l0 12.8-2.7 0 0-20.8 2.5 0 0 4.7c0.9-1.5 2.1-2.7 3.6-3.7 1.6-0.9 3.3-1.4 5.2-1.4 1.1 0 2.1 0.2 2.9 0.6 0.8 0.4 1.4 1 1.9 1.8 0.5 0.8 0.8 1.7 1 2.8 0.2 1.1 0.3 2.4 0.3 3.7l0 12.2M128.2 63.8c-1.4 0-2.8-0.3-4-0.9-1.2-0.6-2.2-1.4-3.1-2.4-0.9-1-1.5-2.1-2-3.4-0.5-1.3-0.7-2.6-0.7-4 0-1.4 0.2-2.8 0.7-4.1 0.5-1.3 1.1-2.5 2-3.5 0.9-1 1.9-1.8 3-2.4 1.2-0.6 2.5-0.9 4-0.9 1.8 0 3.3 0.5 4.6 1.4 1.3 0.9 2.4 2 3.4 3.4l0-4.4 2.4 0 0 20.9c0 1.4-0.3 2.7-0.8 3.8-0.5 1.1-1.3 2.1-2.2 2.8-0.9 0.7-2 1.3-3.2 1.7-1.2 0.4-2.5 0.6-3.9 0.6-2.4 0-4.3-0.4-5.8-1.3-1.5-0.9-2.7-2-3.6-3.4l1.7-1.3c0.8 1.3 1.9 2.3 3.3 2.9 1.4 0.6 2.8 1 4.4 1 1 0 2-0.1 2.9-0.4 0.9-0.3 1.7-0.7 2.4-1.2 0.7-0.5 1.2-1.2 1.6-2.1 0.4-0.8 0.6-1.8 0.6-2.9l0-4.1c-0.8 1.3-1.9 2.4-3.3 3.2-1.4 0.8-2.8 1.2-4.4 1.2m0.8-2.3c0.8 0 1.6-0.1 2.4-0.4 0.8-0.3 1.5-0.7 2.1-1.2 0.6-0.5 1.2-1.1 1.6-1.7 0.4-0.6 0.7-1.2 0.8-1.9l0-6.4c-0.3-0.7-0.7-1.4-1.2-2.1-0.5-0.6-1.1-1.2-1.7-1.6-0.6-0.5-1.3-0.8-2.1-1.1-0.7-0.3-1.5-0.4-2.2-0.4-1.2 0-2.2 0.3-3.2 0.8-0.9 0.5-1.7 1.1-2.3 1.9-0.6 0.8-1.1 1.7-1.5 2.7-0.3 1-0.5 2-0.5 3.1 0 1.1 0.2 2.2 0.6 3.2 0.4 1 0.9 1.9 1.6 2.7 0.7 0.7 1.5 1.3 2.5 1.8 0.9 0.4 1.9 0.6 3 0.6M151.4 63.9c-1.6 0-3.2-0.3-4.8-0.8-1.5-0.5-2.9-1.3-4-2.3l1.2-1.8c1.2 1 2.4 1.7 3.6 2.2 1.2 0.5 2.5 0.7 3.9 0.7 1.7 0 3-0.3 4-1 1-0.7 1.5-1.7 1.5-2.9 0-0.6-0.1-1.1-0.4-1.4-0.3-0.4-0.7-0.7-1.2-1-0.5-0.3-1.2-0.5-2-0.8-0.8-0.2-1.7-0.5-2.7-0.7-1.2-0.3-2.2-0.6-3.1-0.9-0.9-0.3-1.6-0.6-2.2-1-0.6-0.4-1-0.8-1.3-1.4-0.3-0.6-0.4-1.3-0.4-2.1 0-1 0.2-2 0.6-2.8 0.4-0.8 1-1.5 1.7-2 0.7-0.5 1.5-0.9 2.5-1.2 1-0.3 2-0.4 3-0.4 1.6 0 3.1 0.3 4.4 0.8 1.3 0.5 2.4 1.2 3.2 2l-1.3 1.6c-0.8-0.8-1.7-1.4-2.8-1.8-1.1-0.4-2.2-0.6-3.4-0.6-0.7 0-1.4 0.1-2 0.2-0.6 0.1-1.2 0.4-1.6 0.7-0.5 0.3-0.8 0.7-1.1 1.2-0.3 0.5-0.4 1.1-0.4 1.7 0 0.6 0.1 1 0.3 1.4 0.2 0.3 0.5 0.7 0.9 0.9 0.4 0.2 1 0.5 1.6 0.7 0.7 0.2 1.5 0.4 2.4 0.6 1.3 0.3 2.5 0.6 3.5 1 1 0.3 1.9 0.7 2.5 1.1 0.7 0.4 1.2 0.9 1.6 1.6 0.3 0.6 0.5 1.4 0.5 2.2 0 1.9-0.7 3.4-2.2 4.6-1.5 1.1-3.4 1.7-5.9 1.7" />
        </g>
        <g transform="translate(10.159329,952.34252)">
            <path transform="matrix(1.1142466,0,0,1.1142467,-28.238807,-65.771319)" d="m76.8 130.8c0 5-4 9-9 9-5 0-9-4-9-9 0-5 4-9 9-9 5 0 9 4 9 9z" fill="#8058a5" />
            <path transform="matrix(1.6713699,0,0,1.67137,-36.578128,-133.6668)" d="m76.8 130.8c0 5-4 9-9 9-5 0-9-4-9-9 0-5 4-9 9-9 5 0 9 4 9 9z" class="s1" />
            <path transform="matrix(1.3928082,0,0,1.3928083,14.282552,-99.71905)" d="m76.8 130.8c0 5-4 9-9 9-5 0-9-4-9-9 0-5 4-9 9-9 5 0 9 4 9 9z" class="s1" />
        </g>
    </g>
</svg>
